# xmcd
#
# Track frame offsets:
#	150
#	15196
#	28667
#	40151
#	55971
#	69818
#	95589
#	117100
#	127111
#	145407
#	157093
#	180605
#
# Disc length: 2681
#
# Revision: 1
# Processed by: cddbd v1.5.1PL0 Copyright (c) Steve Scherf et al.
# Submitted via: dBpowerAMP V4.0
# Normalized: r0:TRMNUM
#
DISCID=9e0a770c
DTITLE=Crosby Stills and Nash - CSN
DYEAR=1900
DGENRE=
TTITLE0=Shadow capitain
TTITLE1=See the changes
TTITLE2=Carried away
TTITLE3=Fair game
TTITLE4=Anything at all
TTITLE5=Chathedral
TTITLE6=Dark star
TTITLE7=Just a song before i go
TTITLE8=Run from tears
TTITLE9=Cold rain
TTITLE10=In my dreams
TTITLE11=I give you give blind
EXTD=
EXTT0=
EXTT1=
EXTT2=
EXTT3=
EXTT4=
EXTT5=
EXTT6=
EXTT7=
EXTT8=
EXTT9=
EXTT10=
EXTT11=
PLAYORDER=
